<?xml version="1.0" encoding="utf-8"?>
<!-- Generator: Adobe Illustrator 24.0.1, SVG Export Plug-In . SVG Version: 6.00 Build 0)  -->
<svg version="1.1" id="Ñëîé_1" xmlns="http://www.w3.org/2000/svg" xmlns:xlink="http://www.w3.org/1999/xlink" x="0px" y="0px"
	 viewBox="0 0 400 400" style="enable-background:new 0 0 400 400;" xml:space="preserve">
<style type="text/css">
	.st0{opacity:0.1;fill:#452200;enable-background:new    ;}
	.st1{fill:#424242;}
	.st2{fill:#383838;}
	.st3{fill:#1568A1;}
	.st4{fill:#2886C7;}
	.st5{fill:#2D96DE;}
	.st6{opacity:0.2;fill:#FFFFFF;enable-background:new    ;}
	.st7{opacity:0.5;fill:#FFFFFF;enable-background:new    ;}
	.st8{fill:#433345;}
	.st9{fill:#322633;}
	.st10{fill:#18EDBA;}
	.st11{fill:#FEFDF4;}
	.st12{opacity:0.4;fill:#FFFFFF;enable-background:new    ;}
	.st13{fill:#006D77;}
	.st14{fill:#13BC90;}
	.st15{fill:#0D9974;}
	.st16{opacity:0.3;fill:#FFFFFF;enable-background:new    ;}
</style>
<ellipse class="st0" cx="200.2" cy="358.5" rx="114.5" ry="21.5"/>
<g>
	<g>
		<path class="st1" d="M82,147.7l-13.1-0.3C70.2,84.5,122.8,41.5,174,31.5c60.8-11.9,136.5,22.7,152.2,93.2l-12.8,3
			c-14-62.9-82.1-93.7-137-83C131.5,53.5,83.2,92.5,82,147.7z"/>
	</g>
	<path class="st2" d="M73.2,147.5l8.8,0.2c1.1-55.1,49.5-94.2,94.4-103c54.8-10.7,122.9,20.1,137,83l7.2-1.7
		c-18.4-65.8-88.9-97.7-146-86.3C127.2,49.3,78.5,89,73.2,147.5z"/>
	<path class="st3" d="M58.6,155.3c0,0,9.3-30.6,13.7-31.7s14.2-1.6,14.2-1.6l2.2,23.5C88.7,145.5,73.9,161.3,58.6,155.3z"/>
	<path class="st3" d="M335.2,124.2c0,0-15.9-27.8-20.5-27.8S300.5,98,300.5,98l3.1,23.4C303.7,121.4,321.6,133.5,335.2,124.2z"/>
	<path class="st4" d="M329.5,114.8c-5-8.1-12-18.4-14.8-18.5c-4.5-0.1-14.2,1.6-14.2,1.6S311.9,113.2,329.5,114.8z"/>
	<g>
		<path class="st5" d="M66.7,150.9c-51.6,15.4-26.5,114.9,31.2,100C155.5,236.1,66.7,150.9,66.7,150.9z"/>
		<path class="st6" d="M55,160.7c-12.4,6.2-16.9,38.8-9,47.6C64.9,229.6,69.3,153.6,55,160.7z"/>
		<path class="st7" d="M53.4,177.3c-1,5.3-3.4,9.3-5.3,8.9c-1.9-0.4-2.6-5-1.6-10.3s3.4-9.3,5.3-8.9C53.7,167.4,54.4,172,53.4,177.3
			z"/>
		<path class="st3" d="M86.8,229.7c-35.2-0.1-44.4-15.2-46.7-22.5c5.5,27.1,27,51.7,57.8,43.8c7.9-2,13.1-5.4,16.1-9.7
			C108.6,234.5,100.1,229.7,86.8,229.7z"/>
		<g>
			<path class="st8" d="M88.5,142.9C33.4,129,55.1,270.4,114,255.7C173,241,88.5,142.9,88.5,142.9z"/>
		</g>
		<path class="st9" d="M134.9,231.1c0.4-33.9-46.4-88.3-46.4-88.3c-1.4-0.4-2.7-0.6-4-0.7C81.4,150.9,59,215,98,242.9
			C112,252.9,125.7,244.9,134.9,231.1z"/>
		<path class="st9" d="M114,255.7c5-1.3,9-3.1,12.1-5.5c-12.4-18.8-25-34.4-29.9-28.3c-10.6,13.5-28,5.9-28,5.9l0.5,1.6
			C78.7,248,94.3,260.6,114,255.7z"/>
	</g>
	<g>
		<path class="st5" d="M328.5,121.2c53.8,1.2,56,103.8-3.6,104.7C265.3,226.8,328.5,121.2,328.5,121.2z"/>
		<path class="st6" d="M342.3,127.5c13.6,2.7,26.6,33,21.3,43.6C351,196.5,326.7,124.4,342.3,127.5z"/>
		<path class="st7" d="M348.3,143.1c2.4,4.9,5.7,8.1,7.5,7.2s1.2-5.5-1.1-10.3c-2.4-4.9-5.7-8.1-7.5-7.2
			C345.4,133.6,345.9,138.3,348.3,143.1z"/>
		<path class="st3" d="M329.9,202.5c33.9-9.4,38.8-26.4,39.1-34.1c1.8,27.5-12.4,57-44.1,57.5c-8.2,0.1-14-1.8-18.1-5.1
			C310.1,212.9,317,206,329.9,202.5z"/>
		<g>
			<path class="st8" d="M305.3,119.2c49.4-28,65.9,114.2,5.2,115.6C249.8,236.2,305.3,119.2,305.3,119.2z"/>
		</g>
		<path class="st9" d="M283.9,216.6c-9.3-32.6,21.4-97.4,21.4-97.4c1.3-0.7,2.5-1.3,3.7-1.8c5.3,7.6,43.8,63.6,13.6,100.7
			C311.7,231.5,296.4,227.4,283.9,216.6z"/>
		<path class="st9" d="M310.5,234.8c-5.2,0.1-9.5-0.6-13.1-2.1c6.9-21.4,15-39.8,21.3-35.2c13.7,10.2,28.6-1.7,28.6-1.7l0,1.7
			C342.6,217.9,330.9,234.3,310.5,234.8z"/>
	</g>
	<g>
		<g>
			<g>
				<g>
					<path class="st10" d="M249.4,340.6c5.7-2.7,19.3,3.5,25.4,12c0,0,14.7-5.7,9.8,5c-4.9,10.9-9,14-15.6,8.5
						c-11.7-9.7-28.7,1.2-38.6-8.5"/>
				</g>
				<g>
					<path class="st10" d="M179.7,309.6l-33.8,30.1c0,0-8.3,1.6-18.7-0.2s0.8-7.5,9.3-8.4c5.7-0.6,26.8-37.2,26.8-37.2
						c1-2,9.2-8.1,9.7-8.3s9.6,19.3,9.6,19.3L179.7,309.6z"/>
					<path class="st10" d="M141.1,340c2.9-0.2,8.1-0.4,8.1-0.4l22.8-23.2l3.1-16.1l-1.6-3.2l-6.4-1.6L141.1,340z"/>
					<path class="st10" d="M224,309.6l33.8,30.1c0,0,8.3,1.6,18.7-0.2s-0.8-7.5-9.3-8.4c-5.7-0.6-26.8-37.2-26.8-37.2
						c-1-2-9.2-8.1-9.7-8.3s-9.6,19.3-9.6,19.3L224,309.6z"/>
					<path class="st10" d="M262.6,340c-2.9-0.2-8.1-0.4-8.1-0.4l-22.8-23.2l-3.1-16.1l1.6-3.2l6.4-1.6L262.6,340z"/>
					<g>
						<path class="st5" d="M254,336.8c-13.3-47.7-27.9-78.6-51.7-78.6s-38.4,30.9-51.7,78.6H254z"/>
					</g>
					<g>
						<path class="st3" d="M164.1,284.2c-6.5,14.9,18.4,41.7,39.8,7.1L164.1,284.2z"/>
						<path class="st3" d="M238.6,284.2c6.5,14.9-18.4,41.7-39.8,7.1L238.6,284.2z"/>
					</g>
					<path class="st10" d="M154.9,340.6c-5.7-2.7-19.3,3.5-25.4,12c0,0-14.7-5.7-9.8,5c4.9,10.9,9,14,15.6,8.5
						c11.7-9.7,28.7,1.2,38.6-8.5L154.9,340.6z"/>
					<path class="st11" d="M200,371.4"/>
					<path class="st5" d="M254.8,340.1c0,0-12.8,5.5-14.3,21.7c-27.8,16.7-77.3,2.8-77.7,0.1c0-9.5-11.8-21.9-14.1-21.8
						c-2.5-5.1,4.9-13.9,5.7-15.9c12.3-9,84.4-8.3,95.8,0.4C251.1,325.7,258.8,335.8,254.8,340.1z"/>
					<path class="st3" d="M240.6,361.8c0.6-6.7,3.2-11.6,5.9-15c-31.6,10.3-65.8,7.6-87.5,4.1c2.2,3.5,3.8,7.5,3.8,11
						C163.3,364.6,212.8,378.5,240.6,361.8z"/>
				</g>
			</g>
			<g>
				
					<ellipse transform="matrix(0.9823 -0.1872 0.1872 0.9823 -29.7298 40.9385)" class="st10" cx="201.9" cy="177.9" rx="121.5" ry="113.8"/>
				<g>
					<path class="st12" d="M161.6,126.9c3.8-2.9,7.3-4.6,11.8-5.8c-0.8-2.9-3.6-5.7-5.1-8.4c-5.1-0.5-11.2,7-13.5,10.8
						c-1.9,3.3-4.6,9.3-3.1,13.1C154.9,132.9,157.7,129.9,161.6,126.9z"/>
					<path class="st12" d="M235.9,121.8c-3.9-2.7-7.5-4.2-12.1-5.2c0.7-2.9,3.3-5.8,4.7-8.6c5.1-0.8,11.5,6.4,13.9,10.1
						c2.1,3.2,5.1,9,3.8,12.9C242.9,127.4,239.9,124.7,235.9,121.8z"/>
					<g>
						<path class="st13" d="M159.3,122.9c3.3-4.3,6.7-7.1,11.3-9.7c-1.7-2.9-5.5-5.2-7.9-7.7c-5.7,0.9-10.3,10.8-11.6,15.6
							c-1.2,4.2-2.4,11.5,0.3,15.2C153.6,131.3,155.9,127.3,159.3,122.9z"/>
						<path class="st13" d="M236.5,118.4c-3.8-3.8-7.5-6.3-12.3-8.3c1.4-3.1,4.9-5.8,7-8.6c5.8,0.2,11.5,9.6,13.4,14.2
							c1.7,4,3.8,11.1,1.5,15.1C243.2,126.1,240.4,122.4,236.5,118.4z"/>
					</g>
					<g>
						<path class="st13" d="M161.5,137.9c-7.4,4.7-5.2,18.2-4.4,19.2s-0.1-11,7.3-15.7s20.2-0.2,19.4-1.2
							C183.1,139.2,168.9,133.2,161.5,137.9z"/>
						<path class="st13" d="M231.5,131.9c-8.1-3.3-21,4.9-21.6,6s11.3-5.4,19.4-2.1c8.1,3.3,9.3,15.3,9.9,14.2
							C239.8,149,239.6,135.3,231.5,131.9z"/>
					</g>
				</g>
				<path class="st12" d="M164.2,73.5c22.9,7,68.8-7.8,41.2-11C177.8,59.4,164.2,73.5,164.2,73.5z"/>
				<path class="st14" d="M221.6,281.2c-64.4,12.3-125.9-25.5-139.7-84.8c0.2,1.4,0.4,2.8,0.7,4.2c11.8,61.7,74.7,101.6,140.6,89
					s109.8-72.8,98-134.5c-0.3-1.4-0.6-2.8-0.9-4.2C329.3,211.2,286,269,221.6,281.2z"/>
				<path class="st15" d="M165.6,74.9c-18-58.5,10.2-41.2,6.2-11.9c17.7-50.6,71-58.4,15.6-4.5c33.3-25.3,53.3-6.5-19,15.7
					L165.6,74.9z"/>
				<path class="st12" d="M151.5,87.1c2.1,3.1-4,10.9-13.7,17.4s-19.2,9.2-21.3,6.1c-2.1-3.1,4-10.9,13.7-17.5
					C139.8,86.6,149.4,83.9,151.5,87.1z"/>
				<path class="st13" d="M148,180.5c4.8,6.3,1.9,16.6-6.5,23c-8.4,6.4-19.1,6.5-23.9,0.2s-1.9-16.6,6.5-23
					C132.5,174.3,143.2,174.2,148,180.5z"/>
				<path class="st12" d="M240.7,237.8c0.9,2.4-3,6-8.6,8.1c-5.6,2.1-10.9,1.8-11.8-0.6c-0.9-2.4,3-6,8.6-8.1
					C234.5,235.2,239.8,235.4,240.7,237.8z"/>
				
					<ellipse transform="matrix(0.2709 -0.9626 0.9626 0.2709 28.522 388.9186)" class="st13" cx="271" cy="175.6" rx="14.4" ry="19.1"/>
				<g>
					<path class="st13" d="M268.7,198.6c0.3,0,1.4,1.8,2.3,5.3c0.9,3.4,1.3,8.5-0.3,14.7c-1.8,6.2-5.4,13.6-14,20.7
						c-4.1,3.6-9.7,7.1-16.5,10.1c-3.3,1.6-7.2,2.8-11.1,4.1c-4.2,1.1-8.3,2.2-12.9,2.9c-9,1.6-19.2,1.9-27.9,0.4
						c-8.9-1.4-16.1-4.3-21.5-7.5c-5.5-3.1-9.7-6.6-12.7-9.9c-3.2-3.3-5.2-6.6-6.8-9.7c-3-6.1-3.4-11.2-3.3-14.6
						c0.3-3.5,0.9-5.4,1.3-5.4c1.2,0-0.7,7.8,5.9,19.5c3.5,5.7,8.9,12.6,19.4,18.3c5.1,2.9,11.7,5.4,19.4,6.6
						c7.7,1.3,16.2,1,24.5-0.4c4.3-0.6,8.1-1.7,11.9-2.6c3.6-1.2,7.2-2.3,10.3-3.8c6.3-2.8,11.6-5.9,15.7-9.3
						c8.4-6.7,12.3-13.8,14.5-19.7C271,206.3,267.5,198.7,268.7,198.6z"/>
				</g>
			</g>
		</g>
		<ellipse class="st16" cx="205.5" cy="330" rx="15.2" ry="4.4"/>
	</g>
	<path class="st4" d="M65.3,136l0.4,0.2c0,0,9.8,11.5,20.8-14.2c0,0-9.8,0.6-14.2,1.6C70.4,124.1,67.8,129.6,65.3,136z"/>
</g>
</svg>
